<svg width="1639" height="657" viewBox="0 0 1639 657" fill="none" xmlns="http://www.w3.org/2000/svg">
    <path d="M0 144C0 144 350 194 400 244C450 294 512 656 512 656C512 656 150 594 100 544C50 494 0 144 0 144Z"
        fill="#AED1FF" />
    <path
        d="M96.9079 63C96.9079 63 432.908 173.017 473.466 230.94C514.024 288.863 512.221 656.129 512.221 656.129C512.221 656.129 166.487 532.211 125.929 474.288C85.3714 416.365 96.9079 63 96.9079 63Z"
        fill="#8BBDFF" />
    <path
        d="M206.114 0C206.114 0 517.906 166.692 547.789 230.777C577.673 294.863 512.122 656.237 512.122 656.237C512.122 656.237 193.159 474.165 163.276 410.079C133.392 345.993 206.114 0 206.114 0Z"
        fill="#68A9FF" />
    <path
        d="M746.455 503C728.758 503 712.818 499.849 698.636 493.545C684.576 487.121 673.424 477.667 665.182 465.182C657.061 452.697 653 437.303 653 419C653 403.242 655.909 390.212 661.727 379.909C667.545 369.606 675.485 361.364 685.545 355.182C695.606 349 706.939 344.333 719.545 341.182C732.273 337.909 745.424 335.545 759 334.091C775.364 332.394 788.636 330.879 798.818 329.545C809 328.091 816.394 325.909 821 323C825.727 319.97 828.091 315.303 828.091 309V307.909C828.091 294.212 824.03 283.606 815.909 276.091C807.788 268.576 796.091 264.818 780.818 264.818C764.697 264.818 751.909 268.333 742.455 275.364C733.121 282.394 726.818 290.697 723.545 300.273L662.091 291.545C666.939 274.576 674.939 260.394 686.091 249C697.242 237.485 710.879 228.879 727 223.182C743.121 217.364 760.939 214.455 780.455 214.455C793.909 214.455 807.303 216.03 820.636 219.182C833.97 222.333 846.152 227.545 857.182 234.818C868.212 241.97 877.061 251.727 883.727 264.091C890.515 276.455 893.909 291.909 893.909 310.455V497.364H830.636V459H828.455C824.455 466.758 818.818 474.03 811.545 480.818C804.394 487.485 795.364 492.879 784.455 497C773.667 501 761 503 746.455 503ZM763.545 454.636C776.758 454.636 788.212 452.03 797.909 446.818C807.606 441.485 815.061 434.455 820.273 425.727C825.606 417 828.273 407.485 828.273 397.182V364.273C826.212 365.97 822.697 367.545 817.727 369C812.879 370.455 807.424 371.727 801.364 372.818C795.303 373.909 789.303 374.879 783.364 375.727C777.424 376.576 772.273 377.303 767.909 377.909C758.091 379.242 749.303 381.424 741.545 384.455C733.788 387.485 727.667 391.727 723.182 397.182C718.697 402.515 716.455 409.424 716.455 417.909C716.455 430.03 720.879 439.182 729.727 445.364C738.576 451.545 749.848 454.636 763.545 454.636Z"
        fill="#eeeeee" />
    <path
        d="M960.091 497.364V218.091H1025.91V497.364H960.091ZM993.182 178.455C982.758 178.455 973.788 175 966.273 168.091C958.758 161.061 955 152.636 955 142.818C955 132.879 958.758 124.455 966.273 117.545C973.788 110.515 982.758 107 993.182 107C1003.73 107 1012.7 110.515 1020.09 117.545C1027.61 124.455 1031.36 132.879 1031.36 142.818C1031.36 152.636 1027.61 161.061 1020.09 168.091C1012.7 175 1003.73 178.455 993.182 178.455Z"
        fill="#eeeeee" />
    <path
        d="M1343.05 218.091L1243.59 497.364H1170.86L1071.41 218.091H1141.59L1205.77 425.545H1208.68L1273.05 218.091H1343.05Z"
        fill="#eeeeee" />
    <path
        d="M1429.5 602.091C1420.53 602.091 1412.23 601.364 1404.59 599.909C1397.08 598.576 1391.08 597 1386.59 595.182L1401.86 543.909C1411.44 546.697 1419.98 548.03 1427.5 547.909C1435.02 547.788 1441.62 545.424 1447.32 540.818C1453.14 536.333 1458.05 528.818 1462.05 518.273L1467.68 503.182L1366.41 218.091H1436.23L1500.59 429H1503.5L1568.05 218.091H1638.05L1526.23 531.182C1521.02 545.97 1514.11 558.636 1505.5 569.182C1496.89 579.848 1486.35 587.97 1473.86 593.545C1461.5 599.242 1446.71 602.091 1429.5 602.091Z"
        fill="#eeeeee" />
</svg>
